<?xml version="1.0" encoding="UTF-8"?>
<svg xmlns="http://www.w3.org/2000/svg" xmlns:xlink="http://www.w3.org/1999/xlink" width="500" height="500" viewBox="0 0 500 500">
<defs>
<g>
<g id="glyph-0-0-6234b05e">
<path d="M 2.109375 0 C 2.109375 0 0.953125 0 0.953125 0 C 0.953125 0 0.953125 -10.203125 0.953125 -10.203125 C 0.953125 -10.203125 2.109375 -10.203125 2.109375 -10.203125 C 2.109375 -10.203125 2.109375 0 2.109375 0 Z M 2.109375 0 "/>
</g>
<g id="glyph-0-1-6234b05e">
<path d="M 7.140625 -3.609375 C 7.140625 -1.203125 5.875 0.203125 3.828125 0.203125 C 1.734375 0.203125 0.5 -1.203125 0.5 -3.671875 C 0.5 -6.125 1.75 -7.546875 3.8125 -7.546875 C 5.921875 -7.546875 7.140625 -6.140625 7.140625 -3.609375 Z M 5.921875 -3.625 C 5.921875 -5.453125 5.140625 -6.46875 3.828125 -6.46875 C 2.515625 -6.46875 1.71875 -5.4375 1.71875 -3.671875 C 1.71875 -1.890625 2.515625 -0.875 3.828125 -0.875 C 5.109375 -0.875 5.921875 -1.90625 5.921875 -3.625 Z M 5.921875 -3.625 "/>
</g>
<g id="glyph-0-2-6234b05e">
<path d="M 6.84375 -1.203125 C 6.84375 2.03125 5.859375 3.046875 3.5625 3.046875 C 1.84375 3.046875 0.765625 2.21875 0.640625 0.84375 C 0.640625 0.84375 1.828125 0.84375 1.828125 0.84375 C 1.96875 1.734375 2.6875 2.078125 3.609375 2.078125 C 4.96875 2.078125 5.765625 1.328125 5.765625 -0.609375 C 5.765625 -0.609375 5.765625 -1.109375 5.765625 -1.109375 C 5 -0.1875 4.359375 0.203125 3.4375 0.203125 C 1.703125 0.203125 0.40625 -1.28125 0.40625 -3.59375 C 0.40625 -5.984375 1.671875 -7.546875 3.53125 -7.546875 C 4.46875 -7.546875 5.1875 -7.140625 5.765625 -6.265625 C 5.765625 -6.265625 5.765625 -7.34375 5.765625 -7.34375 C 5.765625 -7.34375 6.84375 -7.34375 6.84375 -7.34375 C 6.84375 -7.34375 6.84375 -1.203125 6.84375 -1.203125 Z M 5.65625 -3.625 C 5.65625 -5.40625 4.90625 -6.46875 3.65625 -6.46875 C 2.40625 -6.46875 1.625 -5.4375 1.625 -3.671875 C 1.625 -1.890625 2.390625 -0.875 3.671875 -0.875 C 4.90625 -0.875 5.65625 -1.875 5.65625 -3.625 Z M 5.65625 -3.625 "/>
</g>
<g id="glyph-0-3-6234b05e">
<path d="M 8.296875 -9.0625 C 8.296875 -9.0625 4.953125 -9.0625 4.953125 -9.0625 C 4.953125 -9.0625 4.953125 0 4.953125 0 C 4.953125 0 3.65625 0 3.65625 0 C 3.65625 0 3.65625 -9.0625 3.65625 -9.0625 C 3.65625 -9.0625 0.296875 -9.0625 0.296875 -9.0625 C 0.296875 -9.0625 0.296875 -10.203125 0.296875 -10.203125 C 0.296875 -10.203125 8.296875 -10.203125 8.296875 -10.203125 C 8.296875 -10.203125 8.296875 -9.0625 8.296875 -9.0625 Z M 8.296875 -9.0625 "/>
</g>
<g id="glyph-0-4-6234b05e">
<path d="M 7.1875 -3.328125 C 7.1875 -3.328125 1.78125 -3.328125 1.78125 -3.328125 C 1.8125 -1.65625 2.71875 -0.875 3.9375 -0.875 C 4.875 -0.875 5.53125 -1.265625 5.859375 -2.21875 C 5.859375 -2.21875 7.03125 -2.21875 7.03125 -2.21875 C 6.734375 -0.734375 5.578125 0.203125 3.890625 0.203125 C 1.828125 0.203125 0.5625 -1.21875 0.5625 -3.625 C 0.5625 -6.03125 1.875 -7.546875 3.921875 -7.546875 C 5.296875 -7.546875 6.40625 -6.8125 6.890625 -5.609375 C 7.09375 -5.0625 7.1875 -4.390625 7.1875 -3.328125 Z M 5.9375 -4.375 C 5.9375 -5.515625 5.046875 -6.46875 3.90625 -6.46875 C 2.734375 -6.46875 1.90625 -5.59375 1.8125 -4.28125 C 1.8125 -4.28125 5.921875 -4.28125 5.921875 -4.28125 C 5.9375 -4.3125 5.9375 -4.375 5.9375 -4.375 Z M 5.9375 -4.375 "/>
</g>
<g id="glyph-0-5-6234b05e">
<path d="M 7.078125 -2.890625 C 7.078125 -1.015625 5.765625 0.203125 3.71875 0.203125 C 1.6875 0.203125 0.609375 -0.78125 0.453125 -3 C 0.453125 -3 1.6875 -3 1.6875 -3 C 1.765625 -1.546875 2.421875 -0.875 3.765625 -0.875 C 5.046875 -0.875 5.828125 -1.625 5.828125 -2.875 C 5.828125 -3.96875 5.125 -4.625 3.765625 -4.625 C 3.765625 -4.625 3.09375 -4.625 3.09375 -4.625 C 3.09375 -4.625 3.09375 -5.65625 3.09375 -5.65625 C 5.0625 -5.65625 5.53125 -6.09375 5.53125 -7.15625 C 5.53125 -8.203125 4.875 -8.84375 3.78125 -8.84375 C 2.515625 -8.84375 1.921875 -8.1875 1.890625 -6.71875 C 1.890625 -6.71875 0.65625 -6.71875 0.65625 -6.71875 C 0.703125 -8.828125 1.765625 -9.921875 3.765625 -9.921875 C 5.65625 -9.921875 6.796875 -8.90625 6.796875 -7.203125 C 6.796875 -6.203125 6.328125 -5.5625 5.40625 -5.1875 C 6.59375 -4.78125 7.078125 -4.09375 7.078125 -2.890625 Z M 7.078125 -2.890625 "/>
</g>
<g id="glyph-0-6-6234b05e">
<path d="M 2.671875 0 C 2.671875 0 1.21875 0 1.21875 0 C 1.21875 0 1.21875 -1.453125 1.21875 -1.453125 C 1.21875 -1.453125 2.671875 -1.453125 2.671875 -1.453125 C 2.671875 -1.453125 2.671875 0 2.671875 0 Z M 2.671875 0 "/>
</g>
<g id="glyph-0-7-6234b05e">
<path d="M 7.1875 -3.296875 C 7.1875 -1.1875 5.78125 0.203125 3.78125 0.203125 C 2.015625 0.203125 0.890625 -0.578125 0.484375 -2.546875 C 0.484375 -2.546875 1.71875 -2.546875 1.71875 -2.546875 C 2.015625 -1.421875 2.671875 -0.875 3.75 -0.875 C 5.09375 -0.875 5.921875 -1.6875 5.921875 -3.125 C 5.921875 -4.59375 5.078125 -5.453125 3.75 -5.453125 C 2.984375 -5.453125 2.5 -5.203125 1.9375 -4.515625 C 1.9375 -4.515625 0.796875 -4.515625 0.796875 -4.515625 C 0.796875 -4.515625 1.546875 -9.71875 1.546875 -9.71875 C 1.546875 -9.71875 6.65625 -9.71875 6.65625 -9.71875 C 6.65625 -9.71875 6.65625 -8.5 6.65625 -8.5 C 6.65625 -8.5 2.53125 -8.5 2.53125 -8.5 C 2.53125 -8.5 2.140625 -5.9375 2.140625 -5.9375 C 2.71875 -6.359375 3.28125 -6.53125 3.96875 -6.53125 C 5.875 -6.53125 7.1875 -5.25 7.1875 -3.296875 Z M 7.1875 -3.296875 "/>
</g>
<g id="glyph-0-8-6234b05e">
<path d="M 7.1875 -3.078125 C 7.1875 -1.140625 5.828125 0.203125 3.9375 0.203125 C 1.671875 0.203125 0.609375 -1.421875 0.609375 -4.515625 C 0.609375 -7.984375 1.84375 -9.921875 4.15625 -9.921875 C 5.671875 -9.921875 6.734375 -8.953125 6.96875 -7.34375 C 6.96875 -7.34375 5.734375 -7.34375 5.734375 -7.34375 C 5.546875 -8.28125 4.9375 -8.828125 4.078125 -8.828125 C 2.65625 -8.828125 1.875 -7.484375 1.859375 -5.0625 C 2.390625 -5.796875 3.15625 -6.171875 4.140625 -6.171875 C 5.921875 -6.171875 7.1875 -4.921875 7.1875 -3.078125 Z M 5.921875 -2.984375 C 5.921875 -4.3125 5.1875 -5.078125 3.984375 -5.078125 C 2.765625 -5.078125 1.9375 -4.28125 1.9375 -3.046875 C 1.9375 -1.78125 2.796875 -0.875 3.953125 -0.875 C 5.078125 -0.875 5.921875 -1.734375 5.921875 -2.984375 Z M 5.921875 -2.984375 "/>
</g>
<g id="glyph-0-9-6234b05e">
<path d="M 7.28125 -8.6875 C 5.1875 -6.203125 3.796875 -3.203125 3.25 0 C 3.25 0 1.9375 0 1.9375 0 C 2.625 -3.109375 4.03125 -6 6 -8.5 C 6 -8.5 0.640625 -8.5 0.640625 -8.5 C 0.640625 -8.5 0.640625 -9.71875 0.640625 -9.71875 C 0.640625 -9.71875 7.28125 -9.71875 7.28125 -9.71875 C 7.28125 -9.71875 7.28125 -8.6875 7.28125 -8.6875 Z M 7.28125 -8.6875 "/>
</g>
<g id="glyph-0-10-6234b05e">
<path d="M 7.1875 -2.796875 C 7.1875 -1 5.8125 0.203125 3.84375 0.203125 C 1.890625 0.203125 0.515625 -1 0.515625 -2.8125 C 0.515625 -3.90625 1.078125 -4.671875 2.21875 -5.21875 C 1.203125 -5.859375 0.875 -6.359375 0.875 -7.28125 C 0.875 -8.828125 2.09375 -9.921875 3.84375 -9.921875 C 5.609375 -9.921875 6.828125 -8.828125 6.828125 -7.28125 C 6.828125 -6.34375 6.5 -5.84375 5.46875 -5.21875 C 6.625 -4.671875 7.1875 -3.90625 7.1875 -2.796875 Z M 5.578125 -7.25 C 5.578125 -8.21875 4.90625 -8.828125 3.84375 -8.828125 C 2.8125 -8.828125 2.125 -8.21875 2.125 -7.265625 C 2.125 -6.328125 2.8125 -5.71875 3.84375 -5.71875 C 4.890625 -5.71875 5.578125 -6.328125 5.578125 -7.25 Z M 5.921875 -2.78125 C 5.921875 -3.953125 5.078125 -4.671875 3.84375 -4.671875 C 2.625 -4.671875 1.78125 -3.953125 1.78125 -2.78125 C 1.78125 -1.625 2.625 -0.875 3.828125 -0.875 C 5.078125 -0.875 5.921875 -1.609375 5.921875 -2.78125 Z M 5.921875 -2.78125 "/>
</g>
<g id="glyph-0-11-6234b05e">
<path d="M 7.09375 -4.78125 C 7.09375 -1.515625 5.953125 0.203125 3.84375 0.203125 C 1.71875 0.203125 0.609375 -1.515625 0.609375 -4.859375 C 0.609375 -8.1875 1.703125 -9.921875 3.84375 -9.921875 C 6 -9.921875 7.09375 -8.21875 7.09375 -4.78125 Z M 5.84375 -4.890625 C 5.84375 -7.546875 5.1875 -8.828125 3.84375 -8.828125 C 2.515625 -8.828125 1.859375 -7.5625 1.859375 -4.84375 C 1.859375 -2.125 2.515625 -0.8125 3.828125 -0.8125 C 5.1875 -0.8125 5.84375 -2.078125 5.84375 -4.890625 Z M 5.84375 -4.890625 "/>
</g>
<g id="glyph-0-12-6234b05e">
<path d="M 4.859375 0 C 4.859375 0 3.625 0 3.625 0 C 3.625 0 3.625 -7.0625 3.625 -7.0625 C 3.625 -7.0625 1.421875 -7.0625 1.421875 -7.0625 C 1.421875 -7.0625 1.421875 -7.953125 1.421875 -7.953125 C 3.328125 -8.1875 3.609375 -8.40625 4.046875 -9.921875 C 4.046875 -9.921875 4.859375 -9.921875 4.859375 -9.921875 C 4.859375 -9.921875 4.859375 0 4.859375 0 Z M 4.859375 0 "/>
</g>
<g id="glyph-1-0-6234b05e">
<path d="M 2.671875 0 C 2.671875 0 1.21875 0 1.21875 0 C 1.21875 0 1.21875 -1.453125 1.21875 -1.453125 C 1.21875 -1.453125 2.671875 -1.453125 2.671875 -1.453125 C 2.671875 -1.453125 2.671875 0 2.671875 0 Z M 2.671875 0 "/>
</g>
<g id="glyph-2-0-6234b05e">
<path d="M 0 -10.65625 C 0 -10.65625 0 -9.421875 0 -9.421875 C 0 -9.421875 -8.546875 -9.421875 -8.546875 -9.421875 C -8.546875 -9.421875 0 -6.546875 0 -6.546875 C 0 -6.546875 0 -5.1875 0 -5.1875 C 0 -5.1875 -8.546875 -2.28125 -8.546875 -2.28125 C -8.546875 -2.28125 0 -2.28125 0 -2.28125 C 0 -2.28125 0 -1.046875 0 -1.046875 C 0 -1.046875 -10.203125 -1.046875 -10.203125 -1.046875 C -10.203125 -1.046875 -10.203125 -2.859375 -10.203125 -2.859375 C -10.203125 -2.859375 -1.3125 -5.875 -1.3125 -5.875 C -1.3125 -5.875 -10.203125 -8.84375 -10.203125 -8.84375 C -10.203125 -8.84375 -10.203125 -10.65625 -10.203125 -10.65625 C -10.203125 -10.65625 0 -10.65625 0 -10.65625 Z M 0 -10.65625 "/>
</g>
<g id="glyph-3-0-6234b05e">
<path d="M -3.75 -7.328125 C -1.375 -7.328125 0.203125 -6.0625 0.203125 -4.125 C 0.203125 -3.109375 -0.203125 -2.359375 -1.046875 -1.8125 C -1.046875 -1.8125 0 -1.8125 0 -1.8125 C 0 -1.8125 0 -0.75 0 -0.75 C 0 -0.75 -10.203125 -0.75 -10.203125 -0.75 C -10.203125 -0.75 -10.203125 -1.921875 -10.203125 -1.921875 C -10.203125 -1.921875 -6.34375 -1.921875 -6.34375 -1.921875 C -7.171875 -2.46875 -7.546875 -3.171875 -7.546875 -4.1875 C -7.546875 -6.125 -6.125 -7.328125 -3.75 -7.328125 Z M -3.6875 -6.109375 C -5.3125 -6.109375 -6.453125 -5.265625 -6.453125 -3.96875 C -6.515625 -2.734375 -5.390625 -1.921875 -3.671875 -1.921875 C -2 -1.921875 -0.875 -2.734375 -0.875 -3.96875 C -0.875 -5.234375 -2.015625 -6.109375 -3.6875 -6.109375 Z M -3.6875 -6.109375 "/>
</g>
<g id="glyph-3-1-6234b05e">
<path d="M -3.609375 -7.140625 C -1.203125 -7.140625 0.203125 -5.875 0.203125 -3.828125 C 0.203125 -1.734375 -1.203125 -0.5 -3.671875 -0.5 C -6.125 -0.5 -7.546875 -1.75 -7.546875 -3.8125 C -7.546875 -5.921875 -6.140625 -7.140625 -3.609375 -7.140625 Z M -3.625 -5.921875 C -5.453125 -5.921875 -6.46875 -5.140625 -6.46875 -3.828125 C -6.46875 -2.515625 -5.4375 -1.71875 -3.671875 -1.71875 C -1.890625 -1.71875 -0.875 -2.515625 -0.875 -3.828125 C -0.875 -5.109375 -1.90625 -5.921875 -3.625 -5.921875 Z M -3.625 -5.921875 "/>
</g>
<g id="glyph-4-0-6234b05e">
<path d="M 0 -2.109375 C 0 -2.109375 0 -0.953125 0 -0.953125 C 0 -0.953125 -10.203125 -0.953125 -10.203125 -0.953125 C -10.203125 -0.953125 -10.203125 -2.109375 -10.203125 -2.109375 C -10.203125 -2.109375 0 -2.109375 0 -2.109375 Z M 0 -2.109375 "/>
</g>
<g id="glyph-5-0-6234b05e">
<path d="M 7.1875 -3.296875 C 7.1875 -1.1875 5.78125 0.203125 3.78125 0.203125 C 2.015625 0.203125 0.890625 -0.578125 0.484375 -2.546875 C 0.484375 -2.546875 1.71875 -2.546875 1.71875 -2.546875 C 2.015625 -1.421875 2.671875 -0.875 3.75 -0.875 C 5.09375 -0.875 5.921875 -1.6875 5.921875 -3.125 C 5.921875 -4.59375 5.078125 -5.453125 3.75 -5.453125 C 2.984375 -5.453125 2.5 -5.203125 1.9375 -4.515625 C 1.9375 -4.515625 0.796875 -4.515625 0.796875 -4.515625 C 0.796875 -4.515625 1.546875 -9.71875 1.546875 -9.71875 C 1.546875 -9.71875 6.65625 -9.71875 6.65625 -9.71875 C 6.65625 -9.71875 6.65625 -8.5 6.65625 -8.5 C 6.65625 -8.5 2.53125 -8.5 2.53125 -8.5 C 2.53125 -8.5 2.140625 -5.9375 2.140625 -5.9375 C 2.71875 -6.359375 3.28125 -6.53125 3.96875 -6.53125 C 5.875 -6.53125 7.1875 -5.25 7.1875 -3.296875 Z M 7.1875 -3.296875 "/>
</g>
</g>
<clipPath id="clip-0-6234b05e">
<path clip-rule="nonzero" d="M 109 31 L 484 31 L 484 426 L 109 426 Z M 109 31 "/>
</clipPath>
</defs>
<rect x="-50" y="-50" width="600" height="600" fill="rgb(100%, 100%, 100%)" fill-opacity="1"/>
<path fill-rule="nonzero" fill="rgb(100%, 100%, 100%)" fill-opacity="1" d="M 62 441 L 484 441 L 484 16 L 62 16 Z M 62 441 "/>
<path fill="none" stroke-width="1" stroke-linecap="butt" stroke-linejoin="miter" stroke="rgb(0%, 0%, 0%)" stroke-opacity="0.12" stroke-miterlimit="1.154701" d="M 484 441 L 484 16 "/>
<path fill="none" stroke-width="1" stroke-linecap="butt" stroke-linejoin="miter" stroke="rgb(0%, 0%, 0%)" stroke-opacity="0.12" stroke-miterlimit="1.154701" d="M 363.429688 441 L 363.429688 16 "/>
<path fill="none" stroke-width="1" stroke-linecap="butt" stroke-linejoin="miter" stroke="rgb(0%, 0%, 0%)" stroke-opacity="0.12" stroke-miterlimit="1.154701" d="M 242.855469 441 L 242.855469 16 "/>
<path fill="none" stroke-width="1" stroke-linecap="butt" stroke-linejoin="miter" stroke="rgb(0%, 0%, 0%)" stroke-opacity="0.12" stroke-miterlimit="1.154701" d="M 122.285156 441 L 122.285156 16 "/>
<path fill="none" stroke-width="1" stroke-linecap="butt" stroke-linejoin="miter" stroke="rgb(0%, 0%, 0%)" stroke-opacity="0.12" stroke-miterlimit="1.154701" d="M 62 123.324219 L 484 123.324219 "/>
<path fill="none" stroke-width="1" stroke-linecap="butt" stroke-linejoin="miter" stroke="rgb(0%, 0%, 0%)" stroke-opacity="0.12" stroke-miterlimit="1.154701" d="M 62 246.707031 L 484 246.707031 "/>
<path fill="none" stroke-width="1" stroke-linecap="butt" stroke-linejoin="miter" stroke="rgb(0%, 0%, 0%)" stroke-opacity="0.12" stroke-miterlimit="1.154701" d="M 62 370.089844 L 484 370.089844 "/>
<g fill="rgb(0%, 0%, 0%)" fill-opacity="1">
<use xlink:href="#glyph-0-0-6234b05e" x="255.493012" y="481.567999"/>
</g>
<g fill="rgb(0%, 0%, 0%)" fill-opacity="1">
<use xlink:href="#glyph-0-1-6234b05e" x="258.601012" y="481.567999"/>
</g>
<g fill="rgb(0%, 0%, 0%)" fill-opacity="1">
<use xlink:href="#glyph-0-2-6234b05e" x="266.385013" y="481.567999"/>
</g>
<g fill="rgb(0%, 0%, 0%)" fill-opacity="1">
<use xlink:href="#glyph-0-3-6234b05e" x="274.169014" y="481.567999"/>
</g>
<g fill="rgb(0%, 0%, 0%)" fill-opacity="1">
<use xlink:href="#glyph-0-4-6234b05e" x="282.723013" y="481.567999"/>
</g>
<g fill="rgb(0%, 0%, 0%)" fill-opacity="1">
<use xlink:href="#glyph-0-5-6234b05e" x="474.270023" y="462.257999"/>
</g>
<g fill="rgb(0%, 0%, 0%)" fill-opacity="1">
<use xlink:href="#glyph-0-6-6234b05e" x="482.054023" y="462.257999"/>
</g>
<g fill="rgb(0%, 0%, 0%)" fill-opacity="1">
<use xlink:href="#glyph-0-7-6234b05e" x="485.946023" y="462.257999"/>
</g>
<g fill="rgb(0%, 0%, 0%)" fill-opacity="1">
<use xlink:href="#glyph-0-5-6234b05e" x="353.698576" y="462.257999"/>
</g>
<g fill="rgb(0%, 0%, 0%)" fill-opacity="1">
<use xlink:href="#glyph-0-6-6234b05e" x="361.482576" y="462.257999"/>
</g>
<g fill="rgb(0%, 0%, 0%)" fill-opacity="1">
<use xlink:href="#glyph-0-8-6234b05e" x="365.374576" y="462.257999"/>
</g>
<g fill="rgb(0%, 0%, 0%)" fill-opacity="1">
<use xlink:href="#glyph-0-5-6234b05e" x="233.127159" y="462.257999"/>
</g>
<g fill="rgb(0%, 0%, 0%)" fill-opacity="1">
<use xlink:href="#glyph-0-6-6234b05e" x="240.911159" y="462.257999"/>
</g>
<g fill="rgb(0%, 0%, 0%)" fill-opacity="1">
<use xlink:href="#glyph-0-9-6234b05e" x="244.803159" y="462.257999"/>
</g>
<g fill="rgb(0%, 0%, 0%)" fill-opacity="1">
<use xlink:href="#glyph-0-5-6234b05e" x="112.555719" y="462.257999"/>
</g>
<g fill="rgb(0%, 0%, 0%)" fill-opacity="1">
<use xlink:href="#glyph-1-0-6234b05e" x="120.339719" y="462.257999"/>
</g>
<g fill="rgb(0%, 0%, 0%)" fill-opacity="1">
<use xlink:href="#glyph-0-10-6234b05e" x="124.231719" y="462.257999"/>
</g>
<g fill="rgb(0%, 0%, 0%)" fill-opacity="1">
<use xlink:href="#glyph-2-0-6234b05e" x="28.38" y="243.668987"/>
</g>
<g fill="rgb(0%, 0%, 0%)" fill-opacity="1">
<use xlink:href="#glyph-3-0-6234b05e" x="28.380001" y="232.006987"/>
</g>
<g fill="rgb(0%, 0%, 0%)" fill-opacity="1">
<use xlink:href="#glyph-3-1-6234b05e" x="28.380001" y="224.222988"/>
</g>
<g fill="rgb(0%, 0%, 0%)" fill-opacity="1">
<use xlink:href="#glyph-4-0-6234b05e" x="28.380001" y="216.438988"/>
</g>
<g fill="rgb(0%, 0%, 0%)" fill-opacity="1">
<use xlink:href="#glyph-0-11-6234b05e" x="44.216002" y="128.427079"/>
</g>
<g fill="rgb(0%, 0%, 0%)" fill-opacity="1">
<use xlink:href="#glyph-5-0-6234b05e" x="44.216002" y="251.810447"/>
</g>
<g fill="rgb(0%, 0%, 0%)" fill-opacity="1">
<use xlink:href="#glyph-0-12-6234b05e" x="36.432002" y="375.193815"/>
</g>
<g fill="rgb(0%, 0%, 0%)" fill-opacity="1">
<use xlink:href="#glyph-0-11-6234b05e" x="44.216002" y="375.193815"/>
</g>
<g clip-path="url(#clip-0-6234b05e)">
<path fill="none" stroke-width="1.5" stroke-linecap="butt" stroke-linejoin="miter" stroke="rgb(0%, 44.705883%, 69.803923%)" stroke-opacity="1" stroke-miterlimit="2" d="M 484 421.472656 L 477.007812 418.851562 L 470.988281 416.570312 L 466.152344 414.726562 L 462.179688 413.199219 L 458.84375 411.902344 L 455.996094 410.785156 L 453.539062 409.800781 L 451.390625 408.933594 L 449.503906 408.15625 L 447.832031 407.457031 L 446.34375 406.824219 L 445.015625 406.246094 L 443.820312 405.71875 L 442.75 405.230469 L 441.78125 404.785156 L 440.910156 404.371094 L 440.117188 403.988281 L 439.386719 403.628906 L 438.703125 403.292969 L 438.058594 402.972656 L 437.449219 402.667969 L 436.867188 402.378906 L 436.3125 402.101562 L 435.785156 401.835938 L 435.277344 401.582031 L 434.789062 401.339844 L 434.324219 401.101562 L 433.875 400.875 L 433.441406 400.65625 L 433.023438 400.441406 L 432.621094 400.234375 L 432.230469 400.035156 L 431.851562 399.84375 L 431.484375 399.65625 L 431.132812 399.472656 L 430.785156 399.292969 L 430.449219 399.121094 L 430.125 398.953125 L 413.804688 389.804688 L 388.011719 369.554688 L 376.664062 358.21875 L 370.554688 351.867188 L 366.808594 347.960938 L 364.566406 345.734375 L 363.046875 344.226562 L 361.859375 343.003906 L 360.867188 342.058594 L 359.972656 341.15625 L 359.136719 340.328125 L 358.34375 339.546875 L 357.585938 338.824219 L 356.9375 338.214844 L 356.378906 337.699219 L 355.886719 337.25 L 355.4375 336.855469 L 355.023438 336.496094 L 354.636719 336.167969 L 354.261719 335.855469 L 353.886719 335.558594 L 353.527344 335.277344 L 353.0625 335.03125 L 352.65625 334.78125 L 352.207031 334.53125 L 351.761719 334.28125 L 351.25 334.027344 L 350.761719 333.769531 L 350.292969 333.5 L 349.808594 333.226562 L 349.300781 332.945312 L 348.769531 332.652344 L 348.222656 332.351562 L 347.652344 332.039062 L 347.0625 331.710938 L 346.449219 331.367188 L 345.765625 330.976562 L 344.878906 330.46875 L 343.792969 329.84375 L 342.539062 329.109375 L 341.140625 328.285156 L 339.632812 327.394531 L 338.058594 326.464844 L 336.445312 325.515625 L 334.839844 324.574219 L 333.273438 323.664062 L 331.769531 322.800781 L 330.367188 322.003906 L 329.078125 321.285156 L 327.910156 320.640625 L 326.8125 320.035156 L 325.761719 319.453125 L 324.75 318.894531 L 323.773438 318.351562 L 322.828125 317.828125 L 321.914062 317.316406 L 321.019531 316.820312 L 320.148438 316.332031 L 319.289062 315.855469 L 318.449219 315.386719 L 317.617188 314.925781 L 316.792969 314.46875 L 315.972656 314.015625 L 315.15625 313.566406 L 314.34375 313.121094 L 313.527344 312.675781 L 312.703125 312.230469 L 311.875 311.785156 L 311.039062 311.339844 L 310.195312 310.890625 L 309.335938 310.441406 L 308.464844 309.992188 L 307.574219 309.539062 L 306.667969 309.082031 L 305.738281 308.625 L 304.789062 308.160156 L 303.820312 307.695312 L 302.832031 307.230469 L 301.824219 306.761719 L 300.800781 306.292969 L 299.761719 305.824219 L 298.703125 305.355469 L 297.632812 304.886719 L 296.546875 304.417969 L 295.449219 303.949219 L 294.339844 303.484375 L 293.214844 303.015625 L 292.082031 302.554688 L 290.9375 302.089844 L 289.78125 301.628906 L 288.621094 301.171875 L 287.453125 300.71875 L 286.277344 300.265625 L 285.097656 299.8125 L 283.910156 299.363281 L 282.71875 298.917969 L 281.527344 298.476562 L 280.332031 298.039062 L 279.140625 297.601562 L 277.949219 297.167969 L 276.757812 296.738281 L 275.570312 296.3125 L 274.378906 295.886719 L 273.179688 295.464844 L 271.972656 295.042969 L 270.75 294.625 L 269.511719 294.203125 L 268.261719 293.785156 L 267.003906 293.367188 L 265.734375 292.953125 L 264.460938 292.535156 L 263.175781 292.121094 L 261.890625 291.710938 L 259.3125 290.890625 L 256.726562 290.078125 L 255.4375 289.675781 L 254.152344 289.273438 L 252.871094 288.875 L 251.59375 288.480469 L 250.320312 288.085938 L 249.058594 287.691406 L 247.804688 287.304688 L 246.558594 286.917969 L 245.324219 286.53125 L 244.097656 286.152344 L 242.886719 285.773438 L 241.6875 285.394531 L 240.5 285.023438 L 239.328125 284.652344 L 238.171875 284.285156 L 237.03125 283.917969 L 235.90625 283.558594 L 234.796875 283.199219 L 233.703125 282.84375 L 232.621094 282.488281 L 231.550781 282.136719 L 230.492188 281.789062 L 229.4375 281.441406 L 228.390625 281.097656 L 227.351562 280.753906 L 226.316406 280.410156 L 225.289062 280.070312 L 224.269531 279.734375 L 223.257812 279.398438 L 221.253906 278.730469 L 220.261719 278.398438 L 219.277344 278.070312 L 218.300781 277.742188 L 217.332031 277.414062 L 216.367188 277.089844 L 215.410156 276.765625 L 214.460938 276.445312 L 213.515625 276.125 L 212.574219 275.804688 L 211.644531 275.488281 L 210.722656 275.171875 L 209.804688 274.855469 L 208.894531 274.542969 L 207.988281 274.230469 L 207.09375 273.921875 L 206.203125 273.613281 L 205.320312 273.304688 L 204.445312 272.996094 L 203.574219 272.691406 L 202.714844 272.386719 L 201.859375 272.082031 L 201.007812 271.78125 L 200.167969 271.480469 L 199.332031 271.183594 L 198.503906 270.882812 L 197.683594 270.585938 L 196.867188 270.292969 L 196.058594 269.996094 L 195.253906 269.703125 L 194.460938 269.410156 L 193.671875 269.121094 L 192.890625 268.832031 L 192.113281 268.542969 L 191.34375 268.257812 L 190.578125 267.972656 L 189.820312 267.6875 L 189.066406 267.402344 L 188.320312 267.121094 L 187.578125 266.839844 L 186.84375 266.5625 L 186.113281 266.28125 L 185.390625 266.003906 L 184.671875 265.730469 L 183.957031 265.453125 L 183.25 265.179688 L 182.546875 264.90625 L 181.847656 264.632812 L 181.15625 264.363281 L 180.46875 264.09375 L 179.789062 263.824219 L 179.113281 263.554688 L 178.441406 263.285156 L 176.496094 262.5 L 174.609375 261.730469 L 172.777344 260.972656 L 170.996094 260.226562 L 169.269531 259.488281 L 167.59375 258.761719 L 165.953125 258.042969 L 164.359375 257.332031 L 162.804688 256.625 L 161.289062 255.929688 L 159.8125 255.238281 L 158.367188 254.554688 L 156.953125 253.875 L 155.574219 253.199219 L 154.226562 252.53125 L 152.910156 251.871094 L 151.625 251.210938 L 150.367188 250.558594 L 149.136719 249.910156 L 147.933594 249.269531 L 146.757812 248.628906 L 145.605469 247.996094 L 144.480469 247.363281 L 143.378906 246.738281 L 142.300781 246.117188 L 141.246094 245.5 L 140.214844 244.882812 L 139.203125 244.273438 L 138.214844 243.667969 L 137.246094 243.0625 L 136.300781 242.464844 L 135.367188 241.867188 L 134.457031 241.273438 L 133.566406 240.683594 L 132.691406 240.097656 L 131.832031 239.511719 L 130.996094 238.929688 L 130.175781 238.351562 L 129.375 237.773438 L 128.59375 237.199219 L 127.828125 236.625 L 127.074219 236.054688 L 126.339844 235.484375 L 125.621094 234.917969 L 124.917969 234.355469 L 124.230469 233.792969 L 123.5625 233.234375 L 122.914062 232.675781 L 122.285156 232.125 L 121.675781 231.574219 L 121.089844 231.03125 L 120.523438 230.488281 L 119.980469 229.949219 L 119.460938 229.421875 L 118.964844 228.894531 L 118.496094 228.371094 L 118.046875 227.851562 L 117.617188 227.332031 L 117.210938 226.808594 L 116.820312 226.28125 L 116.675781 226.074219 L 116.386719 225.652344 L 116.246094 225.4375 L 116.109375 225.21875 L 115.96875 225 L 115.835938 224.78125 L 115.703125 224.558594 L 115.574219 224.332031 L 115.449219 224.101562 L 115.207031 223.632812 L 115.09375 223.398438 L 114.980469 223.15625 L 114.875 222.914062 L 114.773438 222.664062 L 114.675781 222.417969 L 114.585938 222.164062 L 114.5 221.90625 L 114.421875 221.648438 L 114.351562 221.386719 L 114.289062 221.117188 L 114.234375 220.847656 L 114.191406 220.574219 L 114.152344 220.296875 L 114.128906 220.015625 L 114.117188 219.730469 L 114.117188 219.441406 L 114.128906 219.148438 L 114.160156 218.851562 L 114.203125 218.550781 L 114.269531 218.246094 L 114.347656 217.9375 L 114.445312 217.625 L 114.566406 217.304688 L 114.707031 216.980469 L 114.871094 216.652344 L 115.054688 216.320312 L 115.277344 215.980469 L 115.519531 215.632812 L 115.796875 215.277344 L 116.105469 214.917969 L 116.4375 214.554688 L 116.851562 214.175781 L 117.269531 213.792969 L 117.761719 213.402344 L 118.292969 213 L 118.894531 212.59375 L 119.59375 212.171875 L 120.363281 211.738281 L 121.21875 211.292969 L 122.097656 210.835938 L 123.21875 210.359375 L 124.417969 209.867188 L 125.835938 209.363281 L 127.378906 208.84375 L 129.09375 208.304688 L 131.03125 207.75 L 133.222656 207.179688 L 135.691406 206.585938 L 136.164062 206.476562 L 136.640625 206.363281 L 137.136719 206.253906 L 137.644531 206.140625 L 138.15625 206.03125 L 138.675781 205.917969 L 139.210938 205.804688 L 139.761719 205.691406 L 140.328125 205.574219 L 141.480469 205.34375 L 142.078125 205.230469 L 142.679688 205.113281 L 143.945312 204.878906 L 144.601562 204.761719 L 145.296875 204.644531 L 145.980469 204.527344 L 146.667969 204.40625 L 147.410156 204.289062 L 148.136719 204.171875 L 148.871094 204.050781 L 149.636719 203.933594 L 150.417969 203.8125 L 151.207031 203.691406 L 152.035156 203.574219 L 152.878906 203.453125 L 153.722656 203.335938 L 154.617188 203.21875 L 155.523438 203.101562 L 156.4375 202.984375 L 157.375 202.863281 L 159.304688 202.628906 L 160.328125 202.511719 L 161.34375 202.394531 L 162.378906 202.277344 L 163.441406 202.160156 L 164.539062 202.039062 L 165.625 201.921875 L 166.742188 201.800781 L 169.039062 201.558594 L 170.199219 201.433594 L 171.390625 201.3125 L 172.582031 201.183594 L 173.800781 201.050781 L 175.023438 200.917969 L 176.234375 200.777344 L 177.457031 200.632812 L 178.671875 200.480469 L 179.914062 200.324219 L 181.132812 200.15625 L 182.347656 199.984375 L 183.554688 199.800781 L 184.742188 199.605469 L 185.90625 199.398438 L 187.046875 199.183594 L 188.167969 198.953125 L 189.265625 198.707031 L 190.339844 198.449219 L 191.378906 198.179688 L 192.402344 197.894531 L 193.394531 197.59375 L 194.367188 197.28125 L 195.292969 196.953125 L 196.171875 196.617188 L 197.046875 196.261719 L 197.890625 195.894531 L 198.683594 195.519531 L 198.832031 195.445312 L 198.996094 195.371094 L 199.292969 195.214844 L 199.441406 195.140625 L 199.585938 195.0625 L 199.738281 194.984375 L 200.027344 194.828125 L 200.167969 194.746094 L 200.300781 194.667969 L 200.445312 194.589844 L 200.585938 194.507812 L 200.730469 194.429688 L 200.875 194.34375 L 201.148438 194.179688 L 201.289062 194.09375 L 201.425781 194.011719 L 201.558594 193.925781 L 201.695312 193.839844 L 201.824219 193.757812 L 201.957031 193.667969 L 202.199219 193.503906 L 202.335938 193.414062 L 202.585938 193.242188 L 202.707031 193.15625 L 202.824219 193.066406 L 202.9375 192.984375 L 203.0625 192.898438 L 203.183594 192.808594 L 203.535156 192.539062 L 203.648438 192.449219 L 203.765625 192.359375 L 203.882812 192.265625 L 204.003906 192.171875 L 204.113281 192.082031 L 204.230469 191.992188 L 204.34375 191.898438 L 204.453125 191.808594 L 204.574219 191.710938 L 204.6875 191.617188 L 204.796875 191.523438 L 204.902344 191.429688 L 205.011719 191.332031 L 205.125 191.238281 L 205.226562 191.144531 L 205.339844 191.042969 L 205.558594 190.847656 L 205.664062 190.746094 L 205.773438 190.648438 L 205.882812 190.546875 L 205.988281 190.445312 L 206.089844 190.34375 L 206.195312 190.242188 L 206.296875 190.140625 L 206.402344 190.039062 L 206.507812 189.933594 L 206.605469 189.832031 L 206.707031 189.730469 L 206.804688 189.625 L 207.007812 189.414062 L 207.203125 189.203125 L 207.296875 189.101562 L 207.398438 188.992188 L 207.496094 188.886719 L 207.59375 188.777344 L 207.695312 188.671875 L 207.785156 188.5625 L 207.882812 188.457031 L 207.984375 188.347656 L 208.078125 188.242188 L 208.175781 188.132812 L 208.269531 188.023438 L 208.359375 187.914062 L 208.449219 187.808594 L 208.539062 187.695312 L 208.632812 187.585938 L 208.71875 187.476562 L 208.804688 187.371094 L 208.894531 187.261719 L 208.984375 187.148438 L 209.070312 187.042969 L 209.15625 186.933594 L 209.25 186.820312 L 209.332031 186.710938 L 209.425781 186.597656 L 209.511719 186.484375 L 209.601562 186.371094 L 209.6875 186.257812 L 209.777344 186.144531 L 209.863281 186.03125 L 209.953125 185.921875 L 210.039062 185.800781 L 210.210938 185.574219 L 210.296875 185.457031 L 210.386719 185.339844 L 210.46875 185.226562 L 210.558594 185.105469 L 210.640625 184.984375 L 210.722656 184.871094 L 210.800781 184.753906 L 210.890625 184.632812 L 210.972656 184.511719 L 211.054688 184.394531 L 211.140625 184.273438 L 211.21875 184.15625 L 211.304688 184.035156 L 211.390625 183.910156 L 211.484375 183.785156 L 211.566406 183.664062 L 211.644531 183.546875 L 211.890625 183.171875 L 211.972656 183.050781 L 212.050781 182.929688 L 212.136719 182.804688 L 212.214844 182.679688 L 212.296875 182.554688 L 212.382812 182.425781 L 212.457031 182.304688 L 212.542969 182.175781 L 212.621094 182.050781 L 212.703125 181.917969 L 212.789062 181.785156 L 212.871094 181.660156 L 212.953125 181.53125 L 213.039062 181.402344 L 213.121094 181.269531 L 213.207031 181.132812 L 213.289062 181.003906 L 213.453125 180.738281 L 213.539062 180.601562 L 213.617188 180.46875 L 213.703125 180.332031 L 213.78125 180.195312 L 213.867188 180.0625 L 213.949219 179.925781 L 214.035156 179.789062 L 214.121094 179.648438 L 214.199219 179.511719 L 214.285156 179.375 L 214.371094 179.230469 L 214.457031 179.089844 L 214.539062 178.953125 L 214.621094 178.808594 L 214.703125 178.671875 L 214.792969 178.523438 L 214.875 178.386719 L 214.960938 178.238281 L 215.042969 178.097656 L 215.128906 177.957031 L 215.214844 177.8125 L 215.304688 177.664062 L 215.390625 177.519531 L 215.46875 177.378906 L 215.554688 177.226562 L 215.734375 176.929688 L 215.8125 176.785156 L 215.90625 176.632812 L 215.992188 176.480469 L 216.078125 176.335938 L 216.160156 176.183594 L 216.25 176.039062 L 216.339844 175.886719 L 216.425781 175.730469 L 216.515625 175.578125 L 216.609375 175.417969 L 216.691406 175.269531 L 216.777344 175.113281 L 216.863281 174.964844 L 216.953125 174.8125 L 217.042969 174.652344 L 217.128906 174.496094 L 217.21875 174.34375 L 217.300781 174.1875 L 217.390625 174.03125 L 217.488281 173.871094 L 217.578125 173.714844 L 217.671875 173.554688 L 217.765625 173.390625 L 217.855469 173.234375 L 217.949219 173.066406 L 218.042969 172.902344 L 218.132812 172.746094 L 218.230469 172.574219 L 218.320312 172.410156 L 218.417969 172.25 L 218.503906 172.085938 L 218.605469 171.910156 L 218.695312 171.75 L 218.792969 171.582031 L 218.886719 171.410156 L 219.089844 171.066406 L 219.183594 170.898438 L 219.292969 170.722656 L 219.386719 170.546875 L 219.484375 170.371094 L 219.585938 170.195312 L 219.6875 170.015625 L 219.792969 169.839844 L 219.894531 169.660156 L 220.003906 169.476562 L 220.097656 169.300781 L 220.210938 169.113281 L 220.3125 168.9375 L 220.421875 168.753906 L 220.53125 168.566406 L 220.632812 168.382812 L 220.746094 168.191406 L 220.847656 168.003906 L 220.964844 167.8125 L 221.070312 167.625 L 221.183594 167.429688 L 221.296875 167.238281 L 221.402344 167.050781 L 221.527344 166.851562 L 221.632812 166.664062 L 221.757812 166.464844 L 221.867188 166.269531 L 221.980469 166.074219 L 222.101562 165.871094 L 222.222656 165.671875 L 222.339844 165.472656 L 222.464844 165.269531 L 222.578125 165.066406 L 222.707031 164.863281 L 222.824219 164.660156 L 222.945312 164.453125 L 223.070312 164.246094 L 223.199219 164.035156 L 223.324219 163.832031 L 223.457031 163.617188 L 223.585938 163.40625 L 223.707031 163.199219 L 223.84375 162.976562 L 224.101562 162.546875 L 224.238281 162.324219 L 224.371094 162.105469 L 224.515625 161.886719 L 224.65625 161.65625 L 224.796875 161.429688 L 224.941406 161.203125 L 225.074219 160.980469 L 225.214844 160.75 L 225.359375 160.515625 L 225.5 160.289062 L 225.652344 160.046875 L 225.792969 159.816406 L 225.9375 159.582031 L 226.09375 159.347656 L 226.246094 159.105469 L 226.398438 158.867188 L 226.558594 158.621094 L 226.707031 158.378906 L 226.867188 158.125 L 227.023438 157.878906 L 227.175781 157.632812 L 227.34375 157.378906 L 227.507812 157.125 L 227.683594 156.863281 L 227.84375 156.609375 L 228.007812 156.351562 L 228.179688 156.089844 L 228.351562 155.832031 L 228.703125 155.292969 L 228.878906 155.027344 L 229.050781 154.761719 L 229.234375 154.492188 L 229.417969 154.21875 L 229.597656 153.941406 L 229.785156 153.664062 L 229.976562 153.382812 L 230.164062 153.101562 L 230.355469 152.820312 L 230.554688 152.535156 L 230.753906 152.246094 L 230.945312 151.960938 L 231.15625 151.664062 L 231.359375 151.363281 L 231.570312 151.0625 L 231.773438 150.765625 L 231.984375 150.464844 L 232.195312 150.160156 L 232.417969 149.847656 L 232.636719 149.542969 L 232.851562 149.226562 L 233.082031 148.902344 L 233.3125 148.582031 L 233.550781 148.25 L 233.789062 147.921875 L 234.03125 147.585938 L 234.273438 147.253906 L 234.515625 146.914062 L 234.761719 146.574219 L 235.015625 146.230469 L 235.273438 145.882812 L 235.535156 145.527344 L 235.789062 145.175781 L 236.058594 144.8125 L 236.324219 144.457031 L 236.597656 144.089844 L 236.878906 143.714844 L 237.164062 143.339844 L 237.449219 142.957031 L 237.734375 142.582031 L 238.027344 142.195312 L 238.332031 141.796875 L 238.632812 141.410156 L 238.9375 141.007812 L 239.253906 140.601562 L 239.570312 140.191406 L 239.882812 139.789062 L 240.203125 139.382812 L 240.542969 138.957031 L 240.878906 138.53125 L 241.21875 138.105469 L 241.5625 137.671875 L 241.914062 137.230469 L 242.269531 136.789062 L 242.632812 136.335938 L 243.011719 135.875 L 243.394531 135.410156 L 243.78125 134.933594 L 244.179688 134.453125 L 244.984375 133.476562 L 245.402344 132.976562 L 245.816406 132.472656 L 246.246094 131.964844 L 246.683594 131.445312 L 247.132812 130.914062 L 247.59375 130.375 L 248.066406 129.828125 L 248.539062 129.273438 L 249.035156 128.703125 L 249.542969 128.128906 L 250.050781 127.546875 L 250.574219 126.960938 L 251.644531 125.757812 L 252.191406 125.152344 L 252.753906 124.527344 L 253.3125 123.910156 L 253.890625 123.277344 L 254.460938 122.648438 L 255.035156 122.019531 L 255.613281 121.390625 L 256.183594 120.765625 L 256.75 120.148438 L 257.28125 119.566406 L 257.785156 119.007812 L 258.234375 118.507812 L 258.601562 118.082031 L 258.828125 117.796875 L 258.914062 117.648438 L 258.902344 117.644531 L 258.890625 117.648438 L 258.878906 117.648438 L 258.859375 117.65625 L 258.835938 117.667969 L 258.800781 117.6875 L 258.757812 117.722656 L 258.707031 117.757812 L 258.652344 117.796875 L 258.585938 117.847656 L 258.4375 117.964844 L 258.355469 118.03125 L 258.261719 118.105469 L 258.050781 118.277344 L 257.9375 118.371094 L 257.820312 118.46875 L 257.691406 118.574219 L 257.5625 118.683594 L 257.429688 118.792969 L 257.292969 118.910156 L 257.152344 119.03125 L 257.015625 119.144531 L 256.878906 119.261719 L 256.71875 119.394531 L 256.554688 119.539062 L 256.402344 119.667969 L 256.28125 119.769531 L 256.21875 119.816406 L 256.242188 119.789062 L 256.316406 119.710938 L 256.4375 119.585938 L 256.578125 119.449219 L 256.703125 119.320312 L 256.804688 119.214844 L 256.886719 119.125 L 256.964844 119.042969 L 257.042969 118.957031 L 257.121094 118.875 L 257.210938 118.78125 L 257.296875 118.691406 L 257.476562 118.511719 L 257.558594 118.421875 L 257.648438 118.328125 L 257.734375 118.242188 L 257.898438 118.070312 L 257.984375 117.980469 L 258.070312 117.894531 L 258.160156 117.796875 L 258.25 117.707031 L 258.332031 117.621094 L 258.589844 117.351562 L 258.679688 117.261719 L 258.851562 117.082031 L 258.941406 116.988281 L 259.03125 116.898438 L 259.117188 116.808594 L 259.207031 116.714844 L 259.386719 116.535156 L 259.476562 116.441406 L 259.566406 116.351562 L 259.65625 116.257812 L 259.738281 116.167969 L 259.917969 115.988281 L 260.007812 115.894531 L 260.09375 115.804688 L 260.1875 115.714844 L 260.28125 115.617188 L 260.472656 115.425781 L 260.652344 115.238281 L 260.742188 115.148438 L 260.824219 115.0625 L 260.910156 114.976562 L 261 114.882812 L 261.179688 114.703125 L 261.269531 114.609375 L 261.355469 114.519531 L 261.648438 114.226562 L 261.746094 114.125 L 262.3125 113.558594 L 262.40625 113.460938 L 262.511719 113.359375 L 262.601562 113.265625 L 262.976562 112.890625 L 263.078125 112.792969 L 263.183594 112.683594 L 263.386719 112.480469 L 263.496094 112.378906 L 263.59375 112.277344 L 263.695312 112.179688 L 263.796875 112.074219 L 263.898438 111.972656 L 263.996094 111.871094 L 264.089844 111.773438 L 264.1875 111.679688 L 264.28125 111.585938 L 264.492188 111.382812 L 265.011719 110.863281 L 265.121094 110.757812 L 265.226562 110.652344 L 265.332031 110.550781 L 265.539062 110.34375 L 265.652344 110.238281 L 265.757812 110.136719 L 265.867188 110.027344 L 265.984375 109.917969 L 266.097656 109.808594 L 266.316406 109.597656 L 266.425781 109.488281 L 266.53125 109.386719 L 266.640625 109.28125 L 266.757812 109.164062 L 266.871094 109.054688 L 266.992188 108.941406 L 267.105469 108.832031 L 267.210938 108.730469 L 267.3125 108.628906 L 267.417969 108.527344 L 267.527344 108.417969 L 267.652344 108.300781 L 267.765625 108.1875 L 267.886719 108.070312 L 267.992188 107.96875 L 268.101562 107.863281 L 268.222656 107.746094 L 268.335938 107.636719 L 268.457031 107.519531 L 268.683594 107.300781 L 268.804688 107.183594 L 268.929688 107.0625 L 269.054688 106.945312 L 269.171875 106.832031 L 269.398438 106.613281 L 269.527344 106.492188 L 269.648438 106.378906 L 269.765625 106.265625 L 269.878906 106.152344 L 270 106.035156 L 270.128906 105.914062 L 270.265625 105.789062 L 270.390625 105.667969 L 270.511719 105.550781 L 270.636719 105.429688 L 270.761719 105.3125 L 270.890625 105.191406 L 271.015625 105.070312 L 271.152344 104.945312 L 271.28125 104.820312 L 271.402344 104.703125 L 271.53125 104.578125 L 271.667969 104.453125 L 271.792969 104.335938 L 272.058594 104.085938 L 272.1875 103.964844 L 272.316406 103.839844 L 272.460938 103.707031 L 272.597656 103.578125 L 272.730469 103.453125 L 272.867188 103.328125 L 273.140625 103.070312 L 273.269531 102.945312 L 273.410156 102.816406 L 273.550781 102.683594 L 273.691406 102.554688 L 273.828125 102.425781 L 273.976562 102.292969 L 274.113281 102.164062 L 274.257812 102.03125 L 274.398438 101.898438 L 274.546875 101.757812 L 274.695312 101.625 L 274.828125 101.5 L 275.117188 101.234375 L 275.261719 101.097656 L 275.414062 100.960938 L 275.558594 100.824219 L 275.710938 100.683594 L 276.007812 100.410156 L 276.15625 100.277344 L 276.316406 100.128906 L 276.464844 99.992188 L 276.605469 99.859375 L 276.761719 99.71875 L 276.914062 99.578125 L 277.082031 99.425781 L 277.242188 99.277344 L 277.390625 99.140625 L 277.546875 99 L 277.707031 98.851562 L 277.875 98.699219 L 278.039062 98.550781 L 278.191406 98.410156 L 278.671875 97.976562 L 278.835938 97.828125 L 279.003906 97.679688 L 279.167969 97.527344 L 279.332031 97.382812 L 279.503906 97.234375 L 279.679688 97.078125 L 279.847656 96.921875 L 280.027344 96.769531 L 280.191406 96.621094 L 280.371094 96.460938 L 280.546875 96.304688 L 280.71875 96.152344 L 281.078125 95.832031 L 281.25 95.679688 L 281.425781 95.519531 L 281.617188 95.355469 L 281.796875 95.195312 L 281.988281 95.027344 L 282.171875 94.863281 L 282.34375 94.707031 L 282.53125 94.542969 L 282.726562 94.375 L 282.910156 94.214844 L 283.101562 94.046875 L 283.296875 93.878906 L 283.484375 93.714844 L 283.675781 93.542969 L 283.886719 93.363281 L 284.070312 93.199219 L 284.277344 93.023438 L 284.480469 92.84375 L 284.667969 92.679688 L 284.890625 92.488281 L 285.082031 92.320312 L 285.28125 92.148438 L 285.484375 91.972656 L 285.695312 91.792969 L 286.109375 91.433594 L 286.320312 91.253906 L 286.523438 91.078125 L 286.738281 90.894531 L 286.9375 90.71875 L 287.148438 90.539062 L 287.363281 90.355469 L 287.589844 90.160156 L 287.824219 89.964844 L 288.054688 89.769531 L 288.261719 89.59375 L 288.714844 89.210938 L 288.9375 89.023438 L 289.167969 88.828125 L 289.390625 88.636719 L 289.609375 88.449219 L 290.070312 88.058594 L 290.296875 87.867188 L 290.550781 87.65625 L 290.800781 87.449219 L 291.023438 87.257812 L 291.285156 87.039062 L 291.527344 86.839844 L 291.765625 86.640625 L 292.015625 86.433594 L 292.269531 86.222656 L 292.527344 86.011719 L 292.777344 85.804688 L 293.035156 85.59375 L 293.300781 85.375 L 293.554688 85.164062 L 293.824219 84.941406 L 294.070312 84.738281 L 294.335938 84.519531 L 294.621094 84.289062 L 294.894531 84.066406 L 295.152344 83.851562 L 295.421875 83.632812 L 295.695312 83.414062 L 295.992188 83.175781 L 296.261719 82.953125 L 296.558594 82.714844 L 296.84375 82.480469 L 297.132812 82.253906 L 297.425781 82.019531 L 297.726562 81.777344 L 298.011719 81.546875 L 298.328125 81.296875 L 298.609375 81.070312 L 298.902344 80.835938 L 299.203125 80.597656 L 299.523438 80.34375 L 299.839844 80.09375 L 300.152344 79.84375 L 300.464844 79.601562 L 300.789062 79.34375 L 301.109375 79.089844 L 301.433594 78.835938 L 301.765625 78.578125 L 302.101562 78.3125 L 302.441406 78.046875 L 302.765625 77.789062 L 303.117188 77.519531 L 303.460938 77.25 L 304.15625 76.710938 L 304.859375 76.164062 L 305.207031 75.894531 L 305.578125 75.613281 L 305.949219 75.324219 L 306.3125 75.042969 L 306.679688 74.757812 L 307.058594 74.472656 L 307.441406 74.179688 L 307.824219 73.882812 L 308.210938 73.585938 L 308.609375 73.285156 L 308.992188 72.988281 L 309.394531 72.6875 L 309.796875 72.378906 L 310.195312 72.074219 L 310.605469 71.765625 L 311.015625 71.453125 L 311.4375 71.136719 L 311.851562 70.824219 L 312.292969 70.496094 L 313.160156 69.847656 L 313.59375 69.519531 L 314.046875 69.183594 L 314.507812 68.839844 L 314.96875 68.5 L 315.425781 68.15625 L 316.371094 67.460938 L 316.847656 67.109375 L 317.332031 66.753906 L 317.816406 66.394531 L 318.316406 66.03125 L 318.816406 65.664062 L 319.339844 65.292969 L 319.847656 64.921875 L 320.367188 64.550781 L 320.894531 64.171875 L 321.429688 63.792969 L 321.992188 63.390625 L 322.550781 62.992188 L 323.097656 62.601562 L 323.660156 62.207031 L 324.242188 61.796875 L 324.828125 61.382812 L 325.421875 60.96875 L 326.019531 60.546875 L 326.625 60.125 L 327.238281 59.699219 L 327.859375 59.265625 L 328.492188 58.824219 L 329.140625 58.378906 L 329.792969 57.929688 L 330.453125 57.472656 L 331.125 57.015625 L 331.804688 56.554688 L 332.464844 56.097656 L 333.171875 55.617188 L 333.886719 55.132812 L 335.347656 54.148438 L 336.109375 53.640625 L 336.855469 53.140625 L 337.621094 52.632812 L 338.402344 52.109375 L 339.203125 51.582031 L 340.039062 51.042969 L 340.863281 50.503906 L 341.675781 49.964844 L 342.496094 49.410156 L 343.390625 48.835938 L 344.277344 48.261719 L 345.167969 47.6875 L 346.074219 47.097656 L 346.976562 46.511719 L 347.929688 45.902344 L 348.898438 45.285156 L 349.863281 44.667969 L 350.882812 44.027344 L 351.871094 43.398438 L 352.894531 42.75 L 353.941406 42.097656 L 354.992188 41.433594 L 356.074219 40.761719 L 357.140625 40.085938 L 358.246094 39.394531 L 359.398438 38.699219 L 360.519531 38.011719 L 361.738281 37.296875 L 362.90625 36.570312 L 364.050781 35.890625 L 364.839844 35.316406 L 343.238281 45.410156 L 323.589844 55.460938 L 303.894531 65.523438 L 284.183594 75.585938 L 264.398438 85.648438 L 244.449219 95.710938 L 224.507812 105.773438 L 204.574219 115.835938 L 184.640625 125.894531 L 164.707031 135.957031 L 165.164062 135.921875 L 165.503906 135.894531 L 165.785156 135.867188 L 165.992188 135.847656 L 166.179688 135.824219 L 166.332031 135.808594 L 166.464844 135.789062 L 166.582031 135.773438 L 166.683594 135.757812 L 166.777344 135.742188 L 166.855469 135.726562 L 166.929688 135.714844 L 166.996094 135.699219 L 167.121094 135.675781 L 167.171875 135.660156 L 167.21875 135.648438 L 167.261719 135.636719 L 167.300781 135.625 L 167.332031 135.617188 L 167.359375 135.605469 L 167.382812 135.59375 L 167.402344 135.585938 L 167.414062 135.578125 L 167.425781 135.566406 L 167.429688 135.558594 L 167.429688 135.550781 L 167.421875 135.542969 L 167.40625 135.539062 L 167.390625 135.53125 L 167.367188 135.523438 L 167.339844 135.519531 L 167.304688 135.511719 L 167.269531 135.507812 L 167.230469 135.503906 L 167.191406 135.496094 L 167.144531 135.492188 L 167.101562 135.488281 L 167 135.480469 L 166.941406 135.476562 L 166.886719 135.472656 L 166.824219 135.472656 L 166.761719 135.46875 L 166.695312 135.464844 L 166.628906 135.464844 L 166.558594 135.460938 L 166.480469 135.460938 L 166.40625 135.457031 L 166.25 135.457031 L 166.167969 135.453125 L 165.523438 135.453125 L 165.421875 135.457031 L 165.210938 135.457031 L 165.101562 135.460938 L 164.867188 135.460938 L 164.632812 135.46875 L 164.507812 135.46875 L 164.386719 135.472656 L 164.246094 135.476562 L 164.128906 135.476562 L 163.988281 135.480469 L 163.867188 135.484375 L 163.722656 135.488281 L 163.585938 135.492188 L 163.289062 135.5 L 163.148438 135.503906 L 163 135.507812 L 162.863281 135.511719 L 162.699219 135.515625 L 162.527344 135.523438 L 162.375 135.527344 L 162.210938 135.535156 L 162.078125 135.535156 L 161.890625 135.542969 L 161.71875 135.550781 L 161.558594 135.554688 L 161.382812 135.5625 L 161.21875 135.566406 L 161.050781 135.574219 L 160.871094 135.578125 L 160.679688 135.585938 L 160.542969 135.589844 L 160.34375 135.597656 L 160.152344 135.601562 L 159.988281 135.609375 L 159.808594 135.617188 L 159.609375 135.621094 L 159.425781 135.628906 L 159.261719 135.636719 L 159.109375 135.644531 L 158.964844 135.648438 L 158.804688 135.65625 L 158.621094 135.664062 L 158.492188 135.667969 L 158.324219 135.675781 L 158.148438 135.683594 L 157.984375 135.691406 L 157.847656 135.695312 L 157.675781 135.703125 L 157.519531 135.710938 L 157.367188 135.714844 L 157.226562 135.722656 L 157.066406 135.730469 L 156.894531 135.738281 L 156.75 135.742188 L 156.605469 135.75 L 156.460938 135.753906 L 156.304688 135.761719 L 156.15625 135.769531 L 156.011719 135.773438 L 155.867188 135.78125 L 155.730469 135.789062 L 155.578125 135.792969 L 155.449219 135.800781 L 155.3125 135.804688 L 155.167969 135.8125 L 155.042969 135.820312 L 154.90625 135.824219 L 154.777344 135.832031 L 154.65625 135.835938 L 154.53125 135.84375 L 154.40625 135.847656 L 154.289062 135.851562 L 154.171875 135.859375 L 154.058594 135.863281 L 153.941406 135.871094 L 153.828125 135.875 L 153.722656 135.882812 L 153.617188 135.886719 L 153.515625 135.890625 L 153.421875 135.898438 L 153.332031 135.902344 L 153.238281 135.90625 L 153.152344 135.910156 L 153.070312 135.914062 L 152.992188 135.917969 L 152.84375 135.925781 L 152.828125 135.929688 L 152.785156 135.929688 L 152.769531 135.933594 L 152.707031 135.933594 L 152.695312 135.9375 L 152.644531 135.9375 L 152.628906 135.941406 L 152.582031 135.941406 L 152.570312 135.945312 L 152.527344 135.945312 L 152.519531 135.949219 L 152.460938 135.949219 L 152.453125 135.953125 L 152.40625 135.953125 L 152.398438 135.957031 L 152.359375 135.957031 L 152.355469 135.960938 L 152.3125 135.960938 L 152.304688 135.964844 L 152.28125 135.964844 L 152.273438 135.96875 L 152.25 135.96875 L 152.242188 135.972656 L 152.222656 135.972656 L 152.21875 135.976562 L 152.210938 135.976562 L 152.214844 135.976562 L 152.214844 135.980469 L 152.234375 135.980469 L 152.234375 135.984375 L 152.769531 135.984375 L 152.796875 135.980469 L 152.957031 135.980469 L 152.992188 135.976562 L 153.167969 135.976562 L 153.207031 135.972656 L 153.328125 135.972656 L 153.367188 135.96875 L 153.496094 135.96875 L 153.539062 135.964844 L 153.632812 135.964844 L 153.679688 135.960938 L 153.773438 135.960938 L 153.824219 135.957031 L 153.921875 135.957031 L 153.976562 135.953125 L 154.078125 135.953125 L 154.132812 135.949219 L 154.1875 135.949219 L 154.242188 135.945312 L 154.351562 135.945312 L 154.410156 135.941406 L 154.46875 135.941406 L 154.527344 135.9375 L 154.585938 135.9375 L 154.644531 135.933594 L 154.707031 135.933594 L 154.769531 135.929688 L 154.828125 135.929688 L 154.894531 135.925781 L 154.957031 135.925781 L 155.019531 135.921875 L 155.085938 135.921875 L 155.148438 135.917969 L 155.214844 135.917969 L 155.285156 135.914062 L 155.351562 135.914062 L 155.492188 135.90625 L 155.5625 135.90625 L 155.632812 135.902344 L 155.703125 135.902344 L 155.773438 135.898438 L 155.847656 135.894531 L 155.921875 135.894531 L 156 135.890625 L 156.074219 135.886719 L 156.148438 135.886719 L 156.222656 135.882812 L 156.300781 135.878906 L 156.378906 135.878906 L 156.535156 135.871094 L 156.617188 135.867188 L 156.828125 135.859375 L 157.042969 135.851562 L 157.277344 135.84375 L 157.808594 135.828125 L 158.085938 135.820312 L 158.371094 135.808594 L 158.65625 135.800781 L 158.949219 135.789062 L 159.242188 135.78125 L 159.53125 135.769531 L 159.832031 135.757812 L 160.128906 135.75 L 160.425781 135.738281 L 160.726562 135.726562 L 161.023438 135.714844 L 161.328125 135.703125 L 161.628906 135.691406 L 161.929688 135.675781 L 162.230469 135.664062 L 162.535156 135.652344 L 162.835938 135.636719 L 163.140625 135.625 L 163.742188 135.59375 L 164.046875 135.578125 L 164.347656 135.5625 L 164.652344 135.550781 L 164.949219 135.53125 L 165.851562 135.484375 L 166.148438 135.464844 L 166.449219 135.449219 L 166.75 135.429688 L 167.046875 135.414062 L 167.640625 135.375 L 167.972656 135.355469 L 168.3125 135.335938 L 168.644531 135.316406 L 168.980469 135.296875 L 169.308594 135.277344 L 169.628906 135.257812 L 169.949219 135.234375 L 170.265625 135.214844 L 170.578125 135.191406 L 170.882812 135.167969 L 171.167969 135.148438 L 171.441406 135.125 L 171.980469 135.078125 L 172.246094 135.050781 L 172.777344 135.003906 L 173.039062 134.976562 L 173.296875 134.953125 L 173.558594 134.925781 L 173.808594 134.898438 L 174.0625 134.875 L 174.320312 134.847656 L 174.582031 134.820312 L 174.839844 134.792969 L 175.097656 134.761719 L 175.355469 134.734375 L 175.609375 134.707031 L 175.867188 134.675781 L 176.121094 134.644531 L 176.371094 134.617188 L 176.617188 134.585938 L 177.09375 134.523438 L 177.820312 134.429688 L 178.078125 134.386719 L 178.324219 134.351562 L 178.585938 134.3125 L 178.675781 134.292969 L 178.65625 134.304688 L 178.773438 134.292969 L 178.925781 134.273438 L 179.078125 134.25 L 179.21875 134.230469 L 179.347656 134.210938 L 179.472656 134.195312 L 179.601562 134.179688 L 179.730469 134.160156 L 179.859375 134.144531 L 180.117188 134.105469 L 180.246094 134.089844 L 180.375 134.070312 L 180.503906 134.054688 L 180.636719 134.035156 L 180.765625 134.015625 L 180.894531 134 L 181.28125 133.941406 L 181.414062 133.925781 L 182.316406 133.789062 L 182.449219 133.769531 L 182.964844 133.691406 L 183.097656 133.671875 L 183.226562 133.652344 L 183.359375 133.632812 L 183.617188 133.59375 L 183.742188 133.570312 L 184.007812 133.53125 L 184.136719 133.511719 L 184.269531 133.488281 L 184.402344 133.46875 L 184.53125 133.449219 L 184.660156 133.425781 L 184.792969 133.40625 L 184.929688 133.382812 L 185.0625 133.363281 L 185.328125 133.316406 L 185.457031 133.296875 L 185.589844 133.273438 L 185.714844 133.25 L 185.851562 133.230469 L 185.976562 133.207031 L 186.242188 133.160156 L 186.367188 133.136719 L 186.496094 133.117188 L 186.625 133.089844 L 186.738281 133.066406 L 186.859375 133.046875 L 186.992188 133.019531 L 187.101562 132.992188 L 187.210938 132.972656 L 187.34375 132.949219 L 187.480469 132.917969 L 187.597656 132.894531 L 187.71875 132.871094 L 187.847656 132.847656 L 187.957031 132.828125 L 188.074219 132.804688 L 188.226562 132.773438 L 188.339844 132.742188 L 188.421875 132.726562 L 188.5625 132.707031 L 188.71875 132.667969 L 188.816406 132.640625 L 188.921875 132.625 L 189.09375 132.585938 L 189.21875 132.550781 L 189.261719 132.542969 L 189.390625 132.546875 L 189.628906 132.496094 L 189.773438 132.460938 L 189.890625 132.441406 L 190.023438 132.421875 L 190.195312 132.398438 L 190.382812 132.363281 L 190.507812 132.335938 L 190.59375 132.316406 L 190.671875 132.300781 L 190.746094 132.289062 L 190.992188 132.242188 L 191.078125 132.222656 L 191.164062 132.207031 L 191.253906 132.1875 L 191.339844 132.167969 L 191.425781 132.152344 L 191.507812 132.132812 L 191.597656 132.117188 L 191.699219 132.09375 L 191.804688 132.070312 L 191.90625 132.050781 L 192.007812 132.027344 L 192.210938 131.988281 L 192.324219 131.96875 L 192.4375 131.941406 L 192.535156 131.921875 L 192.722656 131.882812 L 192.820312 131.859375 L 193.015625 131.820312 L 193.117188 131.796875 L 193.222656 131.777344 L 193.527344 131.707031 L 193.628906 131.6875 L 193.726562 131.664062 L 193.828125 131.644531 L 193.929688 131.621094 L 194.03125 131.601562 L 194.136719 131.578125 L 194.339844 131.53125 L 194.445312 131.507812 L 194.5625 131.480469 L 194.675781 131.453125 L 194.78125 131.429688 L 194.984375 131.382812 L 195.097656 131.359375 L 195.238281 131.320312 L 195.375 131.277344 L 195.511719 131.238281 L 195.65625 131.199219 L 195.796875 131.15625 L 195.9375 131.117188 L 196.359375 130.988281 L 196.5 130.949219 L 196.644531 130.90625 L 196.785156 130.859375 L 197.074219 130.773438 L 197.21875 130.726562 L 197.367188 130.683594 L 197.511719 130.636719 L 197.957031 130.496094 L 198.109375 130.445312 L 198.257812 130.398438 L 198.410156 130.347656 L 198.546875 130.300781 L 198.828125 130.199219 L 198.96875 130.144531 L 199.113281 130.09375 L 199.402344 129.984375 L 199.550781 129.929688 L 199.703125 129.875 L 199.851562 129.816406 L 200.007812 129.761719 L 200.164062 129.699219 L 200.320312 129.640625 L 200.480469 129.582031 L 200.808594 129.457031 L 201.152344 129.324219 L 201.328125 129.257812 L 201.507812 129.1875 L 201.875 129.046875 L 202.265625 128.898438 L 202.464844 128.820312 L 202.671875 128.742188 L 202.882812 128.660156 L 203.097656 128.574219 L 203.324219 128.488281 L 203.554688 128.398438 L 203.792969 128.304688 L 204.039062 128.207031 L 204.296875 128.109375 L 204.5625 128.007812 L 204.839844 127.898438 L 205.121094 127.789062 L 205.425781 127.675781 L 205.742188 127.550781 L 206.070312 127.421875 L 206.417969 127.289062 L 206.785156 127.144531 L 207.171875 126.996094 L 207.585938 126.835938 L 208.023438 126.667969 L 208.519531 126.480469 L 209.042969 126.28125 L 209.605469 126.066406 L 210.21875 125.832031 L 210.898438 125.574219 L 211.644531 125.289062 L 212.476562 124.96875 L 213.425781 124.601562 L 214.511719 124.179688 L 215.796875 123.675781 L 217.351562 123.074219 L 220.113281 121.976562 L 224.949219 120.214844 L 234.730469 115.414062 L 244.691406 109.503906 L 248.859375 106.828125 L 250.570312 105.636719 L 248.839844 106.644531 L 246.164062 108.378906 L 245.214844 109.015625 L 244.589844 109.382812 L 243.792969 109.863281 L 243.347656 110.15625 L 243.097656 110.324219 L 242.925781 110.445312 L 242.847656 110.507812 L 242.832031 110.53125 L 242.867188 110.527344 L 242.9375 110.496094 L 243.046875 110.445312 L 243.183594 110.375 L 243.34375 110.289062 L 243.527344 110.191406 L 243.722656 110.082031 L 243.929688 109.96875 L 244.152344 109.84375 L 244.375 109.714844 L 244.605469 109.582031 L 244.847656 109.445312 L 245.089844 109.300781 L 245.597656 109.003906 L 245.859375 108.847656 L 246.125 108.691406 L 246.390625 108.53125 L 246.667969 108.367188 L 246.941406 108.199219 L 247.210938 108.03125 L 247.480469 107.859375 L 247.753906 107.6875 L 248.308594 107.335938 L 248.585938 107.15625 L 248.867188 106.976562 L 249.152344 106.792969 L 249.4375 106.605469 L 249.714844 106.421875 L 250 106.234375 L 250.285156 106.042969 L 250.570312 105.855469 L 250.859375 105.660156 L 251.15625 105.464844 L 251.453125 105.265625 L 251.761719 105.0625 L 252.074219 104.855469 L 252.390625 104.644531 L 252.71875 104.429688 L 253.054688 104.210938 L 253.402344 103.984375 L 253.753906 103.757812 L 254.121094 103.523438 L 254.503906 103.28125 L 254.902344 103.035156 L 255.328125 102.769531 L 255.78125 102.492188 L 256.257812 102.203125 L 256.777344 101.890625 L 257.351562 101.554688 L 257.972656 101.191406 L 258.664062 100.789062 L 259.363281 100.367188 L 260.054688 99.933594 L 260.746094 99.496094 L 261.417969 99.0625 L 262.066406 98.640625 L 262.671875 98.246094 L 263.277344 97.839844 L 263.820312 97.476562 L 264.332031 97.132812 L 264.8125 96.808594 L 265.273438 96.503906 L 265.722656 96.203125 L 266.164062 95.90625 L 266.597656 95.617188 L 267.472656 95.03125 L 267.921875 94.734375 L 268.371094 94.433594 L 268.832031 94.125 L 269.296875 93.8125 L 269.773438 93.496094 L 270.253906 93.175781 L 270.738281 92.851562 L 271.230469 92.519531 L 272.222656 91.855469 L 273.222656 91.175781 L 273.726562 90.835938 L 274.238281 90.488281 L 274.753906 90.136719 L 275.277344 89.777344 L 275.800781 89.421875 L 276.878906 88.671875 L 277.425781 88.292969 L 277.96875 87.917969 L 278.519531 87.535156 L 279.074219 87.148438 L 279.625 86.757812 L 280.179688 86.371094 L 280.746094 85.964844 L 281.308594 85.566406 L 281.878906 85.160156 L 282.457031 84.75 L 283.039062 84.335938 L 283.632812 83.914062 L 284.238281 83.484375 L 284.851562 83.046875 L 286.101562 82.164062 L 286.730469 81.710938 L 287.371094 81.253906 L 288.019531 80.796875 L 288.671875 80.328125 L 289.347656 79.847656 L 290.015625 79.375 L 290.699219 78.890625 L 291.394531 78.402344 L 292.097656 77.90625 L 292.808594 77.410156 L 293.5 76.917969 L 294.175781 76.425781 L 294.863281 75.925781 L 295.5625 75.425781 L 296.277344 74.914062 L 297.011719 74.398438 L 297.769531 73.871094 L 298.566406 73.328125 L 299.429688 72.765625 L 300.351562 72.175781 L 301.253906 71.554688 L 302.21875 70.902344 L 303.210938 70.203125 L 304.234375 69.449219 L 305.398438 68.617188 L 306.710938 67.730469 L 308.140625 66.800781 L 309.78125 65.785156 L 311.449219 64.71875 L 313.246094 63.628906 L 315.226562 62.476562 L 317.375 61.246094 L 319.285156 60.035156 L 321.316406 58.789062 "/>
</g>
<path fill="none" stroke-width="1" stroke-linecap="butt" stroke-linejoin="miter" stroke="rgb(0%, 0%, 0%)" stroke-opacity="1" stroke-miterlimit="1.154701" d="M 484 441.5 L 484 446.5 "/>
<path fill="none" stroke-width="1" stroke-linecap="butt" stroke-linejoin="miter" stroke="rgb(0%, 0%, 0%)" stroke-opacity="1" stroke-miterlimit="1.154701" d="M 363.429688 441.5 L 363.429688 446.5 "/>
<path fill="none" stroke-width="1" stroke-linecap="butt" stroke-linejoin="miter" stroke="rgb(0%, 0%, 0%)" stroke-opacity="1" stroke-miterlimit="1.154701" d="M 242.855469 441.5 L 242.855469 446.5 "/>
<path fill="none" stroke-width="1" stroke-linecap="butt" stroke-linejoin="miter" stroke="rgb(0%, 0%, 0%)" stroke-opacity="1" stroke-miterlimit="1.154701" d="M 122.285156 441.5 L 122.285156 446.5 "/>
<path fill="none" stroke-width="1" stroke-linecap="butt" stroke-linejoin="miter" stroke="rgb(0%, 0%, 0%)" stroke-opacity="1" stroke-miterlimit="1.154701" d="M 61.5 123.324219 L 56.5 123.324219 "/>
<path fill="none" stroke-width="1" stroke-linecap="butt" stroke-linejoin="miter" stroke="rgb(0%, 0%, 0%)" stroke-opacity="1" stroke-miterlimit="1.154701" d="M 61.5 246.707031 L 56.5 246.707031 "/>
<path fill="none" stroke-width="1" stroke-linecap="butt" stroke-linejoin="miter" stroke="rgb(0%, 0%, 0%)" stroke-opacity="1" stroke-miterlimit="1.154701" d="M 61.5 370.089844 L 56.5 370.089844 "/>
<path fill="none" stroke-width="1" stroke-linecap="butt" stroke-linejoin="miter" stroke="rgb(0%, 0%, 0%)" stroke-opacity="1" stroke-miterlimit="1.154701" d="M 61.5 441 L 484.5 441 "/>
<path fill="none" stroke-width="1" stroke-linecap="butt" stroke-linejoin="miter" stroke="rgb(0%, 0%, 0%)" stroke-opacity="1" stroke-miterlimit="1.154701" d="M 62 441.5 L 62 15.5 "/>
<path fill="none" stroke-width="1" stroke-linecap="butt" stroke-linejoin="miter" stroke="rgb(0%, 0%, 0%)" stroke-opacity="1" stroke-miterlimit="1.154701" d="M 61.5 16 L 484.5 16 "/>
<path fill="none" stroke-width="1" stroke-linecap="butt" stroke-linejoin="miter" stroke="rgb(0%, 0%, 0%)" stroke-opacity="1" stroke-miterlimit="1.154701" d="M 484 441.5 L 484 15.5 "/>
</svg>
